<?xml version="1.0" encoding="UTF-8"?>
<svg width="254px" height="304px" viewBox="0 0 254 304" version="1.1" xmlns="http://www.w3.org/2000/svg" xmlns:xlink="http://www.w3.org/1999/xlink">
    <!-- Generator: Sketch 49.3 (51167) - http://www.bohemiancoding.com/sketch -->
    <title>Combined Shape</title>
    <desc>Created with Sketch.</desc>
    <defs></defs>
    <g id="Page-1-Copy" stroke="none" stroke-width="1" fill="none" fill-rule="evenodd" stroke-linecap="square" stroke-opacity="0.275985054">
        <g id="gradient2" transform="translate(-514.000000, 0.000000)" stroke="#FFFFFF">
            <path d="M445.350824,-365.941708 L445,-366.298053 L445.712388,-367 L446.063212,-366.643655 L838.025299,31.4871366 L838.376123,31.843482 L837.663735,32.5454287 L837.312911,32.1890833 L445.350824,-365.941708 Z M450.034582,-341.091439 L449.683757,-341.447784 L450.396145,-342.149731 L450.746969,-341.793386 L842.709056,56.3374055 L843.05988,56.6937509 L842.347493,57.3956976 L841.996668,57.0393522 L450.034582,-341.091439 Z M454.718339,-316.24117 L454.367515,-316.597515 L455.079903,-317.299462 L455.430727,-316.943117 L847.392814,81.1876744 L847.743638,81.5440198 L847.03125,82.2459665 L846.680426,81.8896211 L454.718339,-316.24117 Z M459.402097,-291.390901 L459.051272,-291.747247 L459.76366,-292.449193 L460.114484,-292.092848 L852.076571,106.037943 L852.427395,106.394289 L851.715007,107.096235 L851.364183,106.73989 L459.402097,-291.390901 Z M464.085854,-266.540632 L463.73503,-266.896978 L464.447418,-267.598924 L464.798242,-267.242579 L856.760329,130.888212 L857.111153,131.244558 L856.398765,131.946504 L856.047941,131.590159 L464.085854,-266.540632 Z M468.769612,-241.690363 L468.418787,-242.046709 L469.131175,-242.748655 L469.481999,-242.39231 L861.444086,155.738481 L861.79491,156.094826 L861.082522,156.796773 L860.731698,156.440428 L468.769612,-241.690363 Z M473.453369,-216.840094 L473.102545,-217.19644 L473.814933,-217.898387 L474.165757,-217.542041 L866.127844,180.58875 L866.478668,180.945095 L865.76628,181.647042 L865.415456,181.290697 L473.453369,-216.840094 Z M478.137126,-191.989826 L477.786302,-192.346171 L478.49869,-193.048118 L478.849514,-192.691772 L870.811601,205.439019 L871.162425,205.795364 L870.450037,206.497311 L870.099213,206.140966 L478.137126,-191.989826 Z M482.820884,-167.139557 L482.47006,-167.495902 L483.182448,-168.197849 L483.533272,-167.841503 L875.495359,230.289288 L875.846183,230.645633 L875.133795,231.34758 L874.782971,230.991234 L482.820884,-167.139557 Z M487.504641,-142.289288 L487.153817,-142.645633 L487.866205,-143.34758 L488.217029,-142.991234 L880.179116,255.139557 L880.52994,255.495902 L879.817552,256.197849 L879.466728,255.841503 L487.504641,-142.289288 Z M492.188399,-117.439019 L491.837575,-117.795364 L492.549963,-118.497311 L492.900787,-118.140966 L884.862874,279.989826 L885.213698,280.346171 L884.50131,281.048118 L884.150486,280.691772 L492.188399,-117.439019 Z M496.872156,-92.58875 L496.521332,-92.9450954 L497.23372,-93.6470421 L497.584544,-93.2906967 L889.546631,304.840094 L889.897455,305.19644 L889.185067,305.898387 L888.834243,305.542041 L496.872156,-92.58875 Z M501.555914,-67.7384811 L501.20509,-68.0948265 L501.917478,-68.7967732 L502.268302,-68.4404278 L894.230388,329.690363 L894.581213,330.046709 L893.868825,330.748655 L893.518001,330.39231 L501.555914,-67.7384811 Z M506.239671,-42.8882122 L505.888847,-43.2445576 L506.601235,-43.9465043 L506.952059,-43.5901589 L898.914146,354.540632 L899.26497,354.896978 L898.552582,355.598924 L898.201758,355.242579 L506.239671,-42.8882122 Z M510.923429,-18.0379433 L510.572605,-18.3942887 L511.284993,-19.0962354 L511.635817,-18.73989 L903.597903,379.390901 L903.948728,379.747247 L903.23634,380.449193 L902.885516,380.092848 L510.923429,-18.0379433 Z M515.607186,6.81232563 L515.256362,6.45598023 L515.96875,5.75403352 L516.319574,6.11037892 L908.281661,404.24117 L908.632485,404.597515 L907.920097,405.299462 L907.569273,404.943117 L515.607186,6.81232563 Z M520.290944,31.6625945 L519.94012,31.3062491 L520.652507,30.6043024 L521.003332,30.9606478 L912.965418,429.091439 L913.316243,429.447784 L912.603855,430.149731 L912.253031,429.793386 L520.290944,31.6625945 Z M524.974701,56.5128634 L524.623877,56.156518 L525.336265,55.4545713 L525.687089,55.8109167 L917.649176,453.941708 L918,454.298053 L917.287612,455 L916.936788,454.643655 L524.974701,56.5128634 Z" id="Combined-Shape"></path>
        </g>
    </g>
</svg>