<?xml version="1.0" encoding="UTF-8"?>
<svg width="230px" height="233px" viewBox="0 0 230 233" version="1.1" xmlns="http://www.w3.org/2000/svg" xmlns:xlink="http://www.w3.org/1999/xlink">
    <!-- Generator: Sketch 49.3 (51167) - http://www.bohemiancoding.com/sketch -->
    <title>Combined Shape</title>
    <desc>Created with Sketch.</desc>
    <defs></defs>
    <g id="Page-1-Copy" stroke="none" stroke-width="1" fill="none" fill-rule="evenodd" stroke-linecap="square" stroke-opacity="0.275985054">
        <g id="gradient2" transform="translate(0.000000, -428.000000)" stroke="#FFFFFF">
            <path d="M-89.6491759,339.058292 L-90,338.701947 L-89.2876122,338 L-88.9367881,338.356345 L303.025299,736.487137 L303.376123,736.843482 L302.663735,737.545429 L302.312911,737.189083 L-89.6491759,339.058292 Z M-84.9654184,363.908561 L-85.3162425,363.552216 L-84.6038548,362.850269 L-84.2530306,363.206614 L307.709056,761.337405 L308.05988,761.693751 L307.347493,762.395698 L306.996668,762.039352 L-84.9654184,363.908561 Z M-80.2816609,388.75883 L-80.632485,388.402485 L-79.9200973,387.700538 L-79.5692732,388.056883 L312.392814,786.187674 L312.743638,786.54402 L312.03125,787.245966 L311.680426,786.889621 L-80.2816609,388.75883 Z M-75.5979034,413.609099 L-75.9487276,413.252753 L-75.2363398,412.550807 L-74.8855157,412.907152 L317.076571,811.037943 L317.427395,811.394289 L316.715007,812.096235 L316.364183,811.73989 L-75.5979034,413.609099 Z M-70.914146,438.459368 L-71.2649701,438.103022 L-70.5525823,437.401076 L-70.2017582,437.757421 L321.760329,835.888212 L322.111153,836.244558 L321.398765,836.946504 L321.047941,836.590159 L-70.914146,438.459368 Z M-66.2303885,463.309637 L-66.5812126,462.953291 L-65.8688248,462.251345 L-65.5180007,462.60769 L326.444086,860.738481 L326.79491,861.094826 L326.082522,861.796773 L325.731698,861.440428 L-66.2303885,463.309637 Z M-61.546631,488.159906 L-61.8974551,487.80356 L-61.1850674,487.101613 L-60.8342432,487.457959 L331.127844,885.58875 L331.478668,885.945095 L330.76628,886.647042 L330.415456,886.290697 L-61.546631,488.159906 Z M-56.8628735,513.010174 L-57.2136976,512.653829 L-56.5013099,511.951882 L-56.1504857,512.308228 L335.811601,910.439019 L336.162425,910.795364 L335.450037,911.497311 L335.099213,911.140966 L-56.8628735,513.010174 Z M-52.179116,537.860443 L-52.5299401,537.504098 L-51.8175524,536.802151 L-51.4667283,537.158497 L340.495359,935.289288 L340.846183,935.645633 L340.133795,936.34758 L339.782971,935.991234 L-52.179116,537.860443 Z M-47.4953585,562.710712 L-47.8461827,562.354367 L-47.1337949,561.65242 L-46.7829708,562.008766 L345.179116,960.139557 L345.52994,960.495902 L344.817552,961.197849 L344.466728,960.841503 L-47.4953585,562.710712 Z M-42.8116011,587.560981 L-43.1624252,587.204636 L-42.4500374,586.502689 L-42.0992133,586.859034 L349.862874,984.989826 L350.213698,985.346171 L349.50131,986.048118 L349.150486,985.691772 L-42.8116011,587.560981 Z M-38.1278436,612.41125 L-38.4786677,612.054905 L-37.7662799,611.352958 L-37.4154558,611.709303 L354.546631,1009.84009 L354.897455,1010.19644 L354.185067,1010.89839 L353.834243,1010.54204 L-38.1278436,612.41125 Z M-33.4440861,637.261519 L-33.7949102,636.905174 L-33.0825225,636.203227 L-32.7316983,636.559572 L359.230388,1034.69036 L359.581213,1035.04671 L358.868825,1035.74866 L358.518001,1035.39231 L-33.4440861,637.261519 Z M-28.7603286,662.111788 L-29.1111527,661.755442 L-28.398765,661.053496 L-28.0479409,661.409841 L363.914146,1059.54063 L364.26497,1059.89698 L363.552582,1060.59892 L363.201758,1060.24258 L-28.7603286,662.111788 Z M-24.0765711,686.962057 L-24.4273953,686.605711 L-23.7150075,685.903765 L-23.3641834,686.26011 L368.597903,1084.3909 L368.948728,1084.74725 L368.23634,1085.44919 L367.885516,1085.09285 L-24.0765711,686.962057 Z M-19.3928136,711.812326 L-19.7436378,711.45598 L-19.03125,710.754034 L-18.6804259,711.110379 L373.281661,1109.24117 L373.632485,1109.59752 L372.920097,1110.29946 L372.569273,1109.94312 L-19.3928136,711.812326 Z M-14.7090562,736.662595 L-15.0598803,736.306249 L-14.3474925,735.604302 L-13.9966684,735.960648 L377.965418,1134.09144 L378.316243,1134.44778 L377.603855,1135.14973 L377.253031,1134.79339 L-14.7090562,736.662595 Z M-10.0252987,761.512863 L-10.3761228,761.156518 L-9.66373505,760.454571 L-9.31291093,760.810917 L382.649176,1158.94171 L383,1159.29805 L382.287612,1160 L381.936788,1159.64365 L-10.0252987,761.512863 Z" id="Combined-Shape"></path>
        </g>
    </g>
</svg>