<?xml version="1.0" encoding="UTF-8"?>
<svg width="540px" height="420px" viewBox="0 0 540 420" version="1.1" xmlns="http://www.w3.org/2000/svg" xmlns:xlink="http://www.w3.org/1999/xlink">
    <!-- Generator: Sketch 42 (36781) - http://www.bohemiancoding.com/sketch -->
    <title>Combined Shape</title>
    <desc>Created with Sketch.</desc>
    <defs></defs>
    <g id="Page-1" stroke="none" stroke-width="1" fill="none" fill-rule="evenodd" stroke-linecap="square" stroke-opacity="0.275985054">
        <g id="black" transform="translate(0.000000, -30.000000)" stroke="#FFFFFF">
            <path d="M-108.172018,-142.307037 L-108.522876,-142.663265 L-107.810419,-143.364981 L-107.459561,-143.008753 L284.540439,254.991247 L284.891297,255.347476 L284.17884,256.049192 L283.827982,255.692963 L-108.172018,-142.307037 Z M-103.487807,-117.464931 L-103.838665,-117.82116 L-103.126209,-118.522876 L-102.775351,-118.166648 L289.224649,279.833352 L289.575507,280.189581 L288.863051,280.891297 L288.512193,280.535069 L-103.487807,-117.464931 Z M-98.8035968,-92.6228262 L-99.1544548,-92.9790545 L-98.4419981,-93.6807706 L-98.0911401,-93.3245423 L293.90886,304.675458 L294.259718,305.031686 L293.547261,305.733402 L293.196403,305.377174 L-98.8035968,-92.6228262 Z M-94.1193862,-67.7807209 L-94.4702443,-68.1369492 L-93.7577876,-68.8386653 L-93.4069296,-68.482437 L298.59307,329.517563 L298.943928,329.873791 L298.231472,330.575507 L297.880614,330.219279 L-94.1193862,-67.7807209 Z M-89.4351757,-42.9386156 L-89.7860338,-43.294844 L-89.0735771,-43.9965601 L-88.722719,-43.6403317 L303.277281,354.359668 L303.628139,354.715897 L302.915682,355.417613 L302.564824,355.061384 L-89.4351757,-42.9386156 Z M-84.7509652,-18.0965104 L-85.1018232,-18.4527387 L-84.3893666,-19.1544548 L-84.0385085,-18.7982265 L307.961491,379.201774 L308.31235,379.558002 L307.599893,380.259718 L307.249035,379.90349 L-84.7509652,-18.0965104 Z M-80.0667546,6.7455949 L-80.4176127,6.38936657 L-79.705156,5.68765045 L-79.354298,6.04387879 L312.645702,404.043879 L312.99656,404.400107 L312.284103,405.101823 L311.933245,404.745595 L-80.0667546,6.7455949 Z M-75.3825441,31.5877002 L-75.7334022,31.2314718 L-75.0209455,30.5297557 L-74.6700875,30.885984 L317.329913,428.885984 L317.680771,429.242212 L316.968314,429.943928 L316.617456,429.5877 L-75.3825441,31.5877002 Z M-70.6983336,56.4298054 L-71.0491917,56.0735771 L-70.336735,55.371861 L-69.9858769,55.7280893 L322.014123,453.728089 L322.364981,454.084318 L321.652524,454.786034 L321.301666,454.429805 L-70.6983336,56.4298054 Z M-66.0141231,81.2719107 L-66.3649811,80.9156824 L-65.6525245,80.2139662 L-65.3016664,80.5701946 L326.698334,478.570195 L327.049192,478.926423 L326.336735,479.628139 L325.985877,479.271911 L-66.0141231,81.2719107 Z M-61.3299125,106.114016 L-61.6807706,105.757788 L-60.9683139,105.056072 L-60.6174559,105.4123 L331.382544,503.4123 L331.733402,503.768528 L331.020946,504.470244 L330.670087,504.114016 L-61.3299125,106.114016 Z M-56.645702,130.956121 L-56.9965601,130.599893 L-56.2841034,129.898177 L-55.9332454,130.254405 L336.066755,528.254405 L336.417613,528.610633 L335.705156,529.31235 L335.354298,528.956121 L-56.645702,130.956121 Z M-51.9614915,155.798226 L-52.3123495,155.441998 L-51.5998929,154.740282 L-51.2490348,155.09651 L340.750965,553.09651 L341.101823,553.452739 L340.389367,554.154455 L340.038509,553.798226 L-51.9614915,155.798226 Z M-47.277281,180.640332 L-47.628139,180.284103 L-46.9156824,179.582387 L-46.5648243,179.938616 L345.435176,577.938616 L345.786034,578.294844 L345.073577,578.99656 L344.722719,578.640332 L-47.277281,180.640332 Z M-42.5930704,205.482437 L-42.9439285,205.126209 L-42.2314718,204.424493 L-41.8806138,204.780721 L350.119386,602.780721 L350.470244,603.136949 L349.757788,603.838665 L349.40693,603.482437 L-42.5930704,205.482437 Z M-37.9088599,230.324542 L-38.259718,229.968314 L-37.5472613,229.266598 L-37.1964032,229.622826 L354.803597,627.622826 L355.154455,627.979054 L354.441998,628.680771 L354.09114,628.324542 L-37.9088599,230.324542 Z M-33.2246494,255.166648 L-33.5755074,254.810419 L-32.8630508,254.108703 L-32.5121927,254.464931 L359.487807,652.464931 L359.838665,652.82116 L359.126209,653.522876 L358.775351,653.166648 L-33.2246494,255.166648 Z M-28.5404389,280.008753 L-28.8912969,279.652524 L-28.1788402,278.950808 L-27.8279822,279.307037 L364.172018,677.307037 L364.522876,677.663265 L363.810419,678.364981 L363.459561,678.008753 L-28.5404389,280.008753 Z" id="Combined-Shape" transform="translate(128.000000, 267.500000) rotate(-90.000000) translate(-128.000000, -267.500000) "></path>
        </g>
    </g>
</svg>